<?xml version="1.0" standalone="no"?>
<!DOCTYPE svg PUBLIC "-//W3C//DTD SVG 20010904//EN"
 "http://www.w3.org/TR/2001/REC-SVG-20010904/DTD/svg10.dtd">
<svg version="1.0" xmlns="http://www.w3.org/2000/svg"
 width="260.000000pt" height="260.000000pt" viewBox="0 0 260.000000 260.000000"
 preserveAspectRatio="xMidYMid meet">
<metadata>
Created by potrace 1.11, written by Peter Selinger 2001-2013
</metadata>
<g transform="translate(0.000000,260.000000) scale(0.100000,-0.100000)"
fill="#000000" stroke="none">
<path d="M456 2534 c-16 -16 -8 -48 14 -56 5 -1 12 -17 16 -33 5 -29 3 -32
-53 -58 -120 -59 -213 -153 -267 -269 -23 -48 -36 -81 -41 -100 -2 -5 -3 -9
-5 -10 -1 -2 -3 -12 -4 -23 -2 -11 -6 -40 -11 -65 -8 -44 -9 -199 -1 -207 2
-2 -10 -18 -25 -34 -32 -34 -36 -63 -15 -113 16 -38 27 -47 69 -55 21 -5 36
-18 54 -51 107 -191 278 -318 472 -349 35 -6 66 -13 69 -16 3 -2 -14 -54 -38
-115 -24 -61 -41 -112 -39 -114 2 -2 18 -11 35 -19 29 -15 31 -20 27 -54 -10
-80 -44 -214 -67 -267 -27 -61 -54 -80 -126 -89 -55 -7 -96 -47 -80 -77 7 -13
6 -21 -5 -30 -8 -7 -15 -23 -15 -37 0 -26 41 -73 64 -73 9 0 12 -7 9 -18 -7
-28 43 -75 73 -69 16 3 24 0 24 -9 0 -31 83 -63 108 -41 12 9 18 8 30 -11 34
-51 113 -16 188 83 30 39 54 75 54 78 0 3 14 29 30 57 17 28 30 55 30 61 0 6
9 29 20 53 10 23 21 55 24 69 8 45 15 49 46 27 16 -11 55 -33 87 -47 50 -23
72 -27 160 -27 84 -1 103 -4 103 -16 2 -79 35 -152 89 -195 49 -40 139 -66
225 -66 139 0 222 26 277 84 l19 21 15 -21 c24 -34 129 -48 147 -20 6 9 8 9 8
-1 0 -10 11 -13 39 -9 46 5 61 13 61 33 0 11 4 12 19 2 29 -18 70 4 78 42 4
24 8 28 19 19 7 -6 22 -8 32 -5 33 11 47 53 47 140 -1 131 -56 230 -157 282
-25 13 -60 25 -76 26 -27 2 -29 4 -21 26 18 47 17 157 -2 232 -36 141 -122
241 -237 277 -60 18 -180 17 -272 -2 -39 -8 -73 -15 -75 -15 -1 0 -6 12 -9 28
-13 52 -30 79 -63 102 -27 18 -40 21 -77 16 -25 -4 -59 -17 -78 -29 -28 -20
-33 -28 -30 -57 2 -18 8 -45 13 -58 5 -14 8 -27 5 -29 -9 -9 -94 42 -161 96
-38 31 -76 61 -84 67 -12 10 -11 18 8 65 12 30 27 81 35 114 15 67 13 234 -2
303 -8 33 -7 46 4 57 28 27 34 62 20 115 -7 28 -16 53 -20 57 -3 4 -26 7 -51
7 -43 1 -48 4 -88 58 -126 168 -302 260 -497 260 -79 -1 -96 8 -79 40 8 15 4
25 -21 48 -36 34 -52 37 -74 14z"/>
</g>
</svg>
