<?xml version="1.0" standalone="no"?>
<!DOCTYPE svg PUBLIC "-//W3C//DTD SVG 20010904//EN"
 "http://www.w3.org/TR/2001/REC-SVG-20010904/DTD/svg10.dtd">
<svg version="1.0" xmlns="http://www.w3.org/2000/svg"
 width="260.000000pt" height="260.000000pt" viewBox="0 0 260.000000 260.000000"
 preserveAspectRatio="xMidYMid meet">
<metadata>
Created by potrace 1.11, written by Peter Selinger 2001-2013
</metadata>
<g transform="translate(0.000000,260.000000) scale(0.100000,-0.100000)"
fill="#000000" stroke="none">
<path d="M2004 1764 c-78 -97 -263 -198 -463 -251 -279 -74 -652 -73 -918 3
-32 9 -102 37 -156 62 l-99 46 -19 -25 c-23 -29 -59 -140 -59 -180 0 -33 20
-80 30 -74 4 3 13 -2 20 -10 6 -7 18 -11 26 -8 8 3 14 0 14 -6 0 -6 5 -11 11
-11 7 0 10 14 7 35 -5 46 0 38 27 -40 25 -71 42 -98 56 -89 5 3 20 -7 33 -21
25 -27 44 -19 28 12 -6 10 -13 43 -16 73 l-7 55 19 -52 c22 -62 74 -143 80
-125 2 7 -3 33 -12 59 -9 26 -16 54 -16 62 1 9 7 -1 14 -21 8 -21 21 -49 30
-63 18 -27 42 -35 32 -10 -3 8 -1 15 3 15 5 0 12 -7 15 -16 4 -9 13 -14 21
-10 8 3 15 1 15 -5 0 -6 14 -29 31 -50 25 -32 34 -37 45 -28 10 8 14 8 14 0 0
-6 7 -11 15 -11 14 0 14 4 -1 33 l-16 32 32 -33 c18 -18 35 -30 38 -27 3 3 -7
28 -22 55 -15 28 -25 56 -23 63 3 7 6 4 6 -6 1 -10 24 -43 52 -73 52 -54 77
-69 65 -37 -5 13 1 11 20 -7 18 -17 28 -21 31 -13 4 10 12 9 35 -3 16 -8 32
-13 35 -11 2 3 -10 30 -28 61 -36 64 -36 80 0 32 28 -36 109 -101 117 -94 3 3
-8 25 -24 49 -16 24 -32 53 -35 64 l-7 20 15 -20 c26 -34 77 -85 86 -85 14 0
10 16 -11 43 -30 38 -24 39 14 1 32 -32 65 -47 51 -24 -4 7 3 8 21 4 l29 -7
-28 33 c-31 36 -71 109 -64 116 2 3 12 -8 22 -23 25 -37 31 -43 110 -103 67
-51 97 -60 58 -17 -27 29 -76 108 -70 113 2 3 16 -11 30 -29 30 -40 103 -88
93 -62 -4 12 6 9 38 -10 57 -34 66 -32 30 8 -33 34 -74 91 -74 101 0 3 18 -12
40 -34 38 -38 87 -66 97 -56 3 2 -10 17 -27 33 -50 44 -59 71 -11 33 28 -23
52 -33 81 -35 22 -1 40 -1 40 0 0 2 -21 24 -47 50 l-48 46 45 -30 c35 -23 59
-30 106 -33 52 -3 61 -2 56 11 -4 11 -1 13 14 6 34 -14 74 -18 74 -6 0 6 -4
11 -8 11 -13 0 -89 68 -113 101 l-22 31 45 -34 c63 -48 105 -64 129 -50 10 7
27 12 36 12 16 0 16 2 3 11 -11 7 0 8 38 4 62 -8 67 3 12 29 -49 24 -47 32 3
11 69 -29 96 -11 29 19 -21 10 -58 36 -83 58 -24 22 -33 34 -19 26 14 -8 48
-23 77 -33 46 -17 54 -17 75 -3 13 8 37 18 53 22 l30 8 -49 19 c-42 17 -99 49
-86 49 3 0 23 -7 45 -15 45 -16 135 -20 135 -5 0 5 -18 14 -40 20 -51 14 -52
22 0 14 35 -6 41 -4 49 17 5 13 19 34 30 46 l21 23 -22 4 c-13 3 -34 7 -48 9
-16 3 -11 5 14 6 48 1 94 50 49 52 -14 0 -13 2 5 9 12 5 22 14 22 20 0 5 -10
10 -22 11 -22 0 -22 1 2 11 23 11 21 12 -30 18 -61 8 -101 20 -148 44 -42 22
-46 21 -78 -20z"/>
<path d="M1185 713 c-176 -11 -292 -32 -339 -59 -43 -25 25 -54 179 -76 122
-17 503 -17 630 1 108 14 189 43 183 63 -6 18 -98 46 -192 58 -84 11 -373 19
-461 13z"/>
</g>
</svg>
