<?xml version="1.0" standalone="no"?>
<!DOCTYPE svg PUBLIC "-//W3C//DTD SVG 20010904//EN"
 "http://www.w3.org/TR/2001/REC-SVG-20010904/DTD/svg10.dtd">
<svg version="1.0" xmlns="http://www.w3.org/2000/svg"
 width="260.000000pt" height="260.000000pt" viewBox="0 0 260.000000 260.000000"
 preserveAspectRatio="xMidYMid meet">
<metadata>
Created by potrace 1.11, written by Peter Selinger 2001-2013
</metadata>
<g transform="translate(0.000000,260.000000) scale(0.100000,-0.100000)"
fill="#000000" stroke="none">
<path d="M600 2535 c-8 -37 -6 -53 6 -48 8 3 11 -2 7 -15 -3 -14 2 -21 17 -25
19 -5 20 -8 10 -27 -10 -18 -9 -22 9 -27 14 -3 20 -12 18 -27 -1 -15 3 -21 16
-20 9 1 17 -2 17 -7 0 -5 -6 -9 -12 -9 -10 0 -9 -3 1 -9 7 -5 10 -14 7 -20 -4
-6 -2 -11 3 -11 6 0 11 -7 11 -16 0 -9 5 -12 12 -8 8 5 9 2 5 -10 -4 -10 -1
-19 8 -23 13 -4 13 -8 3 -22 -7 -9 -8 -13 -4 -9 12 11 39 -29 30 -44 -4 -6 -3
-8 3 -5 12 8 26 -20 17 -34 -3 -5 2 -12 10 -15 9 -3 16 -12 16 -20 0 -22 22
-64 31 -58 5 3 9 0 9 -5 0 -6 -5 -11 -10 -11 -6 0 -5 -6 2 -14 7 -8 16 -12 20
-9 4 2 5 -4 1 -13 -4 -11 -3 -15 4 -11 7 5 9 0 6 -12 -3 -10 1 -22 8 -26 8 -6
10 -4 4 6 -5 8 -4 10 0 6 10 -8 16 -31 19 -63 0 -12 6 -20 12 -17 6 2 14 -3
18 -12 4 -11 2 -14 -7 -9 -9 6 -9 5 0 -8 7 -8 10 -18 6 -22 -4 -4 0 -4 9 -1
13 5 16 2 13 -14 -2 -12 1 -21 6 -21 6 0 7 -4 4 -10 -3 -5 1 -10 11 -10 12 0
15 -6 12 -25 -3 -16 1 -30 13 -41 10 -9 16 -21 13 -25 -3 -5 0 -9 5 -9 6 0 11
-7 11 -15 0 -8 5 -15 10 -15 6 0 10 -9 10 -21 0 -11 7 -27 15 -36 12 -12 13
-18 4 -29 -9 -11 -8 -15 5 -20 9 -3 16 -10 16 -14 0 -4 -18 1 -40 12 -22 11
-40 24 -40 29 0 5 -3 8 -7 8 -21 -3 -33 2 -27 13 5 7 3 8 -5 4 -7 -5 -21 0
-33 11 -12 10 -18 12 -14 5 7 -11 4 -11 -13 0 -12 7 -21 16 -21 20 0 5 -10 8
-22 8 -12 0 -33 10 -46 23 -14 12 -22 16 -18 9 7 -11 4 -11 -13 0 -12 7 -21
17 -21 22 0 4 -9 6 -20 3 -13 -3 -20 0 -20 9 0 8 -4 15 -10 15 -33 4 -70 20
-70 29 0 5 -6 7 -14 4 -8 -3 -21 5 -30 18 -9 12 -16 17 -16 10 0 -7 -5 -10
-10 -7 -6 4 -8 11 -5 16 3 5 -1 6 -9 3 -9 -3 -16 -1 -16 6 0 6 -5 8 -10 5 -5
-3 -10 -1 -10 5 0 6 -4 8 -10 5 -5 -3 -10 -1 -10 5 0 6 -4 8 -10 5 -5 -3 -10
-1 -10 4 0 6 -7 11 -16 11 -9 0 -12 5 -8 13 6 9 4 9 -8 -1 -13 -10 -17 -10
-22 3 -3 9 -10 13 -16 10 -5 -3 -10 -2 -10 3 0 6 -7 13 -16 16 -12 5 -14 3 -8
-7 5 -7 2 -5 -8 5 -9 10 -21 18 -27 18 -6 0 -11 8 -12 18 0 15 -1 15 -8 -2 -7
-19 -8 -19 -14 -1 -4 10 -10 15 -14 12 -3 -4 -14 2 -24 14 -12 14 -18 16 -22
7 -4 -11 -6 -10 -6 0 -1 7 -6 10 -11 7 -5 -3 -10 -1 -10 5 0 6 -5 8 -10 5 -6
-3 -10 -1 -10 4 0 6 -9 11 -20 11 -11 0 -20 4 -20 9 0 5 -16 15 -34 22 -19 7
-33 16 -31 19 7 11 -29 8 -43 -3 -11 -9 -11 -13 4 -24 10 -8 13 -13 5 -13 -7
0 -9 -4 -6 -10 3 -5 0 -10 -7 -10 -8 0 -9 -3 -3 -8 15 -11 17 -32 2 -32 -7 0
-8 -3 -2 -8 6 -4 10 -20 10 -37 0 -16 -4 -33 -10 -37 -6 -5 -6 -8 1 -8 6 0 11
-13 11 -30 0 -16 -5 -27 -10 -23 -6 4 -7 1 -2 -8 13 -20 13 -49 1 -49 -7 0 -7
-3 -1 -8 15 -11 17 -32 2 -32 -7 0 -8 -3 -2 -8 6 -4 10 -20 10 -37 0 -16 -4
-33 -10 -37 -6 -5 -6 -8 1 -8 6 0 11 -13 11 -30 0 -16 -5 -27 -10 -23 -6 4 -7
1 -2 -8 13 -20 13 -49 1 -49 -7 0 -7 -3 -1 -8 15 -11 17 -32 2 -32 -7 0 -8 -3
-2 -8 6 -4 10 -20 10 -37 0 -16 -4 -33 -10 -37 -6 -5 -6 -8 1 -8 6 0 11 -13
11 -30 0 -16 -5 -27 -10 -23 -6 4 -7 1 -2 -8 13 -20 13 -49 1 -49 -7 0 -7 -3
-1 -8 15 -11 17 -32 2 -32 -7 0 -8 -3 -2 -8 6 -4 10 -20 10 -37 0 -16 -4 -33
-10 -37 -6 -5 -6 -8 1 -8 6 0 11 -13 11 -30 0 -16 -5 -27 -10 -23 -6 4 -7 1
-2 -8 13 -20 13 -49 1 -49 -7 0 -7 -3 -1 -8 15 -11 17 -32 2 -32 -7 0 -8 -3
-2 -8 6 -4 10 -20 10 -37 0 -16 -4 -33 -10 -37 -6 -5 -6 -8 1 -8 6 0 11 -13
11 -30 0 -16 -5 -27 -10 -23 -6 4 -7 1 -2 -8 13 -20 13 -49 1 -49 -6 0 -5 -4
2 -9 8 -4 14 -12 14 -16 0 -4 -6 -12 -14 -16 -10 -7 -10 -9 2 -9 13 0 13 -1 0
-10 -10 -6 -11 -10 -3 -10 13 0 13 -34 1 -46 -4 -3 -4 -12 -1 -20 4 -12 8 -11
20 3 8 10 11 12 8 5 -6 -12 -3 -12 16 -1 13 7 30 12 37 11 7 -2 11 3 10 10 -2
7 3 12 10 10 6 -1 12 2 12 7 0 5 8 8 18 7 9 0 16 4 15 11 -2 7 3 10 11 7 7 -3
20 2 29 10 9 9 23 16 32 16 9 0 14 4 10 9 -3 6 4 8 15 6 11 -2 20 1 20 7 0 6
3 8 7 5 3 -4 12 1 20 11 8 9 11 10 7 3 -5 -9 4 -6 23 7 17 12 33 19 37 15 3
-3 6 2 6 13 0 16 2 16 10 4 8 -12 10 -12 15 2 4 9 13 14 20 12 7 -3 16 0 21 7
5 8 3 10 -6 4 -8 -5 -11 -4 -6 3 4 6 13 9 20 6 8 -3 17 0 21 5 3 6 11 9 16 6
5 -4 12 1 15 9 3 9 14 16 24 16 10 0 25 6 32 13 14 12 33 19 55 20 7 0 11 5
10 11 -1 5 4 10 11 11 7 0 17 7 22 15 9 13 10 13 10 0 1 -12 3 -12 14 2 7 10
16 15 19 11 4 -3 7 -1 7 5 0 7 3 11 8 11 21 -4 32 2 26 14 -4 6 -3 9 1 4 5 -4
19 0 33 9 18 12 23 12 17 3 -3 -8 1 -5 9 5 9 11 16 16 16 12 0 -5 8 -2 17 5
14 12 16 12 9 -1 -4 -8 0 -6 9 5 9 11 20 20 26 20 5 0 14 7 19 15 9 13 10 13
10 0 1 -11 4 -10 16 5 8 11 16 19 17 18 6 -7 46 11 51 22 3 8 13 11 27 8 13
-4 20 -2 16 4 -3 5 0 10 7 10 7 0 13 -6 13 -13 0 -7 -5 -12 -11 -11 -6 1 -11
-12 -11 -29 0 -21 -5 -31 -15 -30 -8 1 -16 -9 -18 -22 -2 -12 -8 -22 -13 -22
-6 0 -7 -5 -4 -10 3 -6 -4 -24 -16 -42 -14 -18 -17 -28 -8 -24 7 4 6 1 -3 -6
-9 -8 -20 -26 -23 -41 -4 -15 -11 -27 -17 -27 -5 0 -7 -9 -3 -20 5 -15 2 -18
-15 -15 -18 3 -20 2 -10 -10 7 -9 8 -15 2 -15 -5 0 -13 -7 -16 -16 -4 -10 -2
-13 7 -9 6 4 4 0 -6 -8 -10 -9 -19 -19 -19 -24 -1 -15 -11 -38 -20 -43 -4 -3
-9 -16 -11 -29 -2 -12 -9 -26 -16 -30 -7 -4 -11 -14 -9 -22 2 -8 -2 -13 -9
-12 -8 2 -10 -4 -6 -14 4 -11 3 -14 -5 -9 -8 4 -10 2 -6 -7 3 -8 -2 -17 -11
-21 -12 -4 -14 -10 -5 -26 9 -16 8 -19 -6 -13 -11 4 -15 1 -12 -13 2 -11 -2
-18 -9 -17 -8 2 -10 -4 -6 -14 4 -10 2 -14 -5 -9 -7 4 -10 -1 -7 -14 2 -12 -5
-30 -16 -41 -12 -12 -18 -23 -15 -26 3 -3 -2 -11 -10 -18 -9 -6 -18 -24 -20
-40 -1 -16 -10 -35 -19 -41 -10 -7 -14 -17 -10 -23 3 -6 1 -11 -5 -11 -6 0 -8
-4 -5 -10 3 -5 1 -10 -5 -10 -6 0 -8 -5 -5 -10 3 -6 1 -10 -4 -10 -6 0 -11 -9
-11 -20 0 -11 -5 -20 -11 -20 -5 0 -7 -5 -4 -10 3 -6 1 -10 -5 -10 -6 0 -9 -4
-5 -9 3 -6 -2 -14 -11 -19 -11 -6 -13 -11 -5 -16 6 -4 11 -5 11 -2 0 3 11 1
25 -4 14 -5 25 -6 25 -2 0 4 27 5 60 2 33 -3 60 -3 60 0 0 3 27 3 60 0 33 -3
60 -3 60 0 0 3 27 3 60 0 33 -3 60 -3 60 0 0 3 27 3 60 0 33 -3 60 -3 60 0 0
3 27 3 60 0 33 -3 60 -3 60 0 0 3 27 3 60 0 33 -3 60 -3 60 0 0 3 27 3 60 0
33 -3 60 -3 60 0 0 3 27 3 60 0 33 -3 60 -3 60 0 0 3 27 3 60 0 33 -3 60 -3
60 0 0 3 61 4 136 2 131 -3 135 -2 125 16 -6 11 -7 22 -4 26 3 3 1 6 -5 6 -7
0 -12 7 -12 16 0 8 -4 12 -10 9 -6 -3 -7 1 -4 9 4 10 1 16 -7 16 -7 0 -9 3 -6
7 4 3 -1 15 -10 26 -10 11 -12 17 -5 13 6 -4 12 -2 12 3 0 6 -7 11 -16 11 -10
0 -14 6 -10 15 3 9 0 15 -9 15 -8 0 -15 4 -15 10 0 5 8 6 18 3 9 -4 4 6 -13
21 -16 15 -25 25 -19 22 6 -3 11 1 11 9 0 8 -3 13 -6 11 -13 -8 -31 21 -31 50
0 8 -4 13 -9 10 -5 -3 -12 1 -15 10 -4 9 -2 13 5 8 6 -3 3 5 -6 20 -10 14 -13
26 -9 26 5 0 1 5 -8 11 -10 5 -18 17 -18 24 0 8 -4 15 -10 15 -5 0 -10 13 -10
29 0 17 -5 33 -12 37 -7 5 -8 3 -3 -6 6 -9 4 -11 -4 -6 -7 5 -10 14 -7 22 3 7
1 16 -5 20 -6 3 -8 13 -5 21 3 8 1 11 -4 8 -6 -4 -13 7 -16 24 -4 17 -13 31
-20 31 -8 0 -11 6 -8 15 4 8 1 15 -5 15 -6 0 -8 7 -5 15 5 11 2 13 -10 9 -12
-4 -15 -2 -10 9 3 8 0 18 -6 22 -9 6 -9 10 1 16 11 7 9 10 -7 15 -13 3 -21 13
-20 22 2 10 -4 23 -13 30 -13 11 -13 12 -1 7 8 -4 7 0 -4 9 -10 8 -16 22 -13
30 4 9 1 15 -5 13 -7 -1 -13 4 -14 11 -1 6 -3 15 -4 20 -1 4 -2 10 -1 15 0 4
-3 7 -8 7 -9 0 -24 33 -26 53 0 5 -9 15 -19 23 -20 14 -20 14 0 29 19 14 19
14 -2 11 -13 -3 -21 1 -21 10 0 8 4 14 9 14 4 0 8 -5 8 -11 0 -5 4 -8 9 -4 6
3 14 -3 20 -12 7 -13 10 -14 11 -4 0 15 14 6 16 -10 1 -5 2 -12 3 -15 0 -4 8
-1 16 6 10 9 15 9 15 1 0 -6 7 -11 16 -11 9 0 12 -5 8 -12 -5 -7 -3 -8 5 -4 7
5 21 0 33 -11 14 -12 18 -13 13 -3 -7 12 -6 13 7 3 8 -7 18 -9 22 -5 4 4 6 0
4 -8 -2 -8 5 -14 15 -15 10 0 21 -6 26 -13 4 -7 17 -14 29 -17 30 -5 43 -15
37 -25 -3 -4 3 -6 13 -3 11 2 26 -2 34 -11 9 -8 18 -12 22 -9 3 4 6 1 6 -5 0
-6 7 -9 15 -6 8 4 17 -1 21 -9 3 -9 14 -14 25 -12 11 2 17 0 14 -6 -4 -5 -1
-9 5 -9 6 0 8 -5 4 -12 -5 -9 -2 -9 9 1 11 9 17 10 17 2 0 -6 9 -11 19 -11 11
0 23 -5 27 -12 5 -7 3 -8 -6 -3 -8 5 -11 4 -6 -3 3 -6 15 -9 26 -7 11 2 20 0
20 -6 0 -5 7 -9 15 -9 8 0 15 -6 15 -12 0 -9 4 -8 10 2 8 12 10 12 10 -5 0
-17 2 -17 10 -5 8 13 10 12 10 -3 0 -10 5 -15 10 -12 6 3 10 2 10 -3 0 -5 10
-8 23 -8 31 3 40 -4 27 -19 -10 -11 -8 -13 9 -10 11 2 27 -2 35 -10 7 -8 16
-11 20 -8 3 4 6 2 6 -4 0 -6 10 -9 23 -6 18 4 19 3 7 -7 -13 -10 -11 -11 7 -7
14 3 21 0 20 -7 -1 -6 4 -10 11 -8 7 1 15 -5 18 -13 4 -8 10 -15 16 -15 5 0 6
5 3 10 -3 6 -2 10 3 10 6 0 12 -6 15 -14 3 -8 16 -20 28 -26 17 -10 20 -9 14
2 -3 7 -1 6 7 -3 7 -9 19 -14 27 -11 8 3 11 0 7 -6 -3 -5 1 -12 9 -16 8 -3 16
0 17 7 0 7 2 17 2 22 1 6 5 15 9 22 4 6 2 15 -4 19 -8 5 -9 3 -4 -6 5 -8 4
-11 -3 -6 -6 4 -9 13 -6 21 4 8 11 12 18 8 6 -4 6 0 -2 9 -9 12 -10 18 -2 23
8 5 8 10 0 20 -13 15 -10 46 5 57 7 5 6 8 0 8 -6 0 -12 12 -13 28 -1 21 0 23
8 12 6 -9 10 -10 10 -3 0 6 -5 15 -10 18 -8 5 -8 11 0 20 7 9 8 15 1 20 -14 8
-10 55 4 55 6 0 7 3 0 8 -5 4 -11 18 -13 32 -2 20 -1 22 7 10 7 -9 11 -10 11
-3 0 6 -5 15 -10 18 -8 5 -8 11 0 20 7 9 8 15 1 20 -14 8 -10 55 4 55 6 0 7 3
0 8 -5 4 -11 18 -13 32 -2 20 -1 22 7 10 7 -9 11 -10 11 -3 0 6 -5 15 -10 18
-8 5 -8 11 0 20 7 9 8 15 1 20 -14 8 -10 55 4 55 6 0 7 3 0 8 -5 4 -11 18 -13
32 -2 20 -1 22 7 10 7 -9 11 -10 11 -3 0 6 -5 15 -10 18 -8 5 -8 11 0 20 7 9
8 15 1 20 -14 8 -10 55 4 55 6 0 7 3 0 8 -5 4 -11 18 -13 32 -2 20 -1 22 7 10
7 -9 11 -10 11 -3 0 6 -5 15 -10 18 -8 5 -8 11 0 20 7 9 8 15 1 20 -14 8 -10
55 4 55 6 0 7 3 0 8 -5 4 -11 18 -13 32 -2 20 -1 22 7 10 7 -9 11 -10 11 -3 0
6 -5 15 -10 18 -8 5 -8 11 0 20 7 9 8 15 1 20 -14 8 -10 55 4 55 6 0 7 3 0 8
-5 4 -11 18 -13 32 -2 20 -1 22 7 10 7 -9 11 -10 11 -3 0 6 -5 15 -10 18 -8 5
-8 11 0 20 7 9 8 15 1 20 -14 8 -10 55 4 55 6 0 7 3 0 8 -5 4 -11 18 -13 32
-2 20 -1 22 7 10 7 -9 11 -10 11 -3 0 6 -4 14 -10 18 -5 3 -7 11 -4 18 3 8 -4
13 -17 14 -14 1 -19 -3 -15 -12 3 -9 -1 -12 -14 -10 -11 2 -22 -1 -25 -6 -4
-5 -10 -7 -15 -4 -4 3 -11 -2 -14 -11 -3 -8 -10 -12 -16 -9 -5 3 -10 1 -10 -5
0 -6 -5 -8 -12 -4 -6 4 -17 -1 -25 -11 -7 -11 -13 -15 -13 -11 0 5 -7 3 -15
-4 -8 -6 -19 -9 -25 -5 -6 4 -9 1 -8 -7 2 -7 -4 -13 -12 -13 -8 0 -19 -6 -23
-13 -5 -7 -12 -10 -18 -7 -5 4 -9 2 -9 -4 0 -5 -9 -8 -20 -6 -11 2 -23 -1 -26
-7 -5 -7 -2 -8 7 -3 11 6 11 5 3 -4 -10 -11 -29 -18 -57 -20 -5 -1 -5 -6 -1
-13 5 -8 2 -9 -9 -5 -10 3 -17 2 -17 -4 0 -6 -4 -7 -10 -4 -5 3 -10 0 -10 -7
0 -9 -3 -9 -10 2 -8 13 -10 12 -10 -3 0 -10 -4 -15 -10 -12 -5 3 -10 2 -10 -4
0 -6 -7 -7 -17 -4 -10 4 -14 2 -9 -5 8 -13 -29 -26 -45 -16 -7 4 -9 3 -6 -3 4
-6 -1 -17 -10 -24 -14 -12 -16 -12 -8 0 6 11 5 12 -6 5 -8 -5 -18 -9 -24 -9
-5 0 -10 -5 -10 -12 0 -6 -4 -15 -9 -20 -5 -5 -6 -3 -2 5 10 17 -9 15 -24 -3
-7 -8 -16 -12 -21 -9 -5 3 -9 0 -9 -7 0 -7 -3 -9 -7 -6 -3 4 -12 -1 -20 -11
-8 -9 -12 -11 -8 -5 4 9 1 11 -9 7 -9 -3 -16 -14 -17 -23 0 -9 -3 -11 -5 -4
-3 7 -12 9 -20 6 -7 -3 -11 -10 -8 -15 4 -6 -2 -8 -15 -3 -16 5 -20 3 -15 -9
5 -12 2 -15 -10 -10 -9 4 -16 1 -16 -6 0 -9 -4 -9 -17 1 -9 8 -14 9 -10 3 10
-17 -17 -36 -38 -27 -13 4 -16 3 -11 -5 4 -7 1 -12 -8 -12 -9 0 -16 -4 -16 -9
0 -4 -11 -7 -25 -6 -13 2 -24 0 -24 -3 1 -4 1 -14 0 -22 -1 -13 -2 -13 -11 0
-5 8 -10 10 -10 5 0 -6 -8 -11 -19 -12 -22 -2 -23 26 -2 43 8 7 11 16 6 24 -6
9 -4 11 4 6 8 -6 11 -2 9 10 -2 13 2 18 12 16 8 -2 12 -1 8 3 -3 4 5 28 18 53
14 25 22 52 19 60 -2 7 0 10 5 7 6 -3 10 1 10 9 0 9 4 16 9 16 6 0 8 9 6 20
-2 11 0 18 6 15 5 -4 9 -1 9 5 0 6 4 9 9 6 5 -4 7 3 4 14 -3 13 0 20 8 20 11
0 11 2 -1 10 -13 8 -12 10 3 10 10 0 16 4 12 9 -3 5 0 13 6 16 5 4 8 13 5 21
-3 8 0 13 7 11 7 -1 11 6 11 16 -1 9 2 17 7 17 5 0 8 6 6 13 -1 6 4 11 12 9 8
-2 11 3 8 12 -4 9 -2 18 4 21 5 4 7 10 4 15 -3 4 2 11 11 14 8 3 13 10 9 15
-3 5 -1 12 5 16 6 4 8 10 5 15 -3 4 2 11 11 14 8 3 12 10 9 16 -3 5 -2 10 4
10 6 0 7 7 4 17 -4 10 -2 14 4 10 6 -4 14 0 17 9 3 9 2 12 -5 8 -6 -3 -5 3 3
15 7 12 17 21 23 21 5 0 3 5 -5 10 -11 7 -11 10 -2 10 7 0 10 5 7 10 -4 6 -1
9 5 8 7 -2 14 6 16 17 1 11 7 21 13 23 5 2 7 10 4 18 -3 8 1 14 11 14 10 0 13
5 9 17 -4 11 -3 14 5 9 8 -5 10 -2 6 8 -3 9 -1 16 6 16 6 0 8 5 5 10 -3 6 -2
10 4 10 5 0 8 9 6 20 -2 11 0 18 6 15 5 -4 9 3 9 14 0 12 5 21 10 21 6 0 10
11 10 25 0 14 5 25 11 25 5 0 7 -6 3 -12 -4 -7 -3 -10 1 -5 5 4 10 16 12 27 2
15 -3 20 -20 21 -90 3 -145 1 -154 -4 -6 -4 -14 -1 -16 5 -4 10 -8 9 -16 -2
-6 -8 -11 -10 -11 -5 0 11 -180 12 -198 1 -6 -3 -13 0 -15 6 -4 10 -8 9 -16
-2 -6 -8 -11 -10 -11 -5 0 11 -180 12 -198 1 -6 -3 -13 0 -15 6 -4 10 -8 9
-16 -2 -6 -8 -11 -10 -11 -5 0 11 -180 12 -198 1 -6 -3 -13 0 -15 6 -4 10 -8
9 -16 -2 -6 -8 -11 -10 -11 -5 0 11 -180 12 -198 1 -6 -3 -13 0 -15 6 -4 10
-8 9 -16 -2 -6 -8 -11 -10 -11 -5 0 11 -180 12 -198 1 -6 -3 -13 0 -15 6 -3 7
-6 9 -7 3z m111 -2228 c-10 -9 -11 -8 -5 6 3 10 9 15 12 12 3 -3 0 -11 -7 -18z"/>
</g>
</svg>
