<?xml version="1.0" standalone="no"?>
<!DOCTYPE svg PUBLIC "-//W3C//DTD SVG 20010904//EN"
 "http://www.w3.org/TR/2001/REC-SVG-20010904/DTD/svg10.dtd">
<svg version="1.0" xmlns="http://www.w3.org/2000/svg"
 width="260.000000pt" height="260.000000pt" viewBox="0 0 260.000000 260.000000"
 preserveAspectRatio="xMidYMid meet">
<metadata>
Created by potrace 1.11, written by Peter Selinger 2001-2013
</metadata>
<g transform="translate(0.000000,260.000000) scale(0.100000,-0.100000)"
fill="#000000" stroke="none">
<path d="M1741 2325 c-48 -16 -103 -54 -141 -99 -31 -36 -153 -198 -198 -263
-100 -144 -154 -220 -169 -238 -10 -11 -16 -22 -14 -23 2 -2 -5 -14 -15 -26
-11 -12 -23 -30 -29 -38 -5 -9 -48 -75 -95 -147 -120 -184 -155 -239 -190
-296 -17 -27 -49 -79 -70 -114 -22 -34 -40 -67 -40 -72 0 -5 -5 -9 -12 -9 -6
0 -8 -3 -5 -7 4 -3 1 -13 -7 -22 -8 -9 -33 -52 -57 -96 -23 -44 -47 -83 -53
-87 -6 -4 -7 -8 -2 -8 5 0 3 -6 -3 -13 -6 -8 -8 -17 -4 -20 3 -4 1 -7 -5 -7
-7 0 -12 -5 -12 -10 0 -6 -9 -30 -21 -54 -11 -25 -21 -51 -23 -58 -1 -7 -4
-17 -8 -23 -6 -11 -4 -98 4 -128 13 -55 91 -115 168 -132 80 -18 181 10 241
66 23 21 106 122 181 219 15 19 61 79 102 132 42 54 76 100 76 103 0 3 9 16
21 28 11 12 36 45 55 72 19 28 57 82 85 120 27 39 102 149 166 245 63 96 123
187 133 201 10 14 30 49 45 77 15 29 31 52 36 52 5 0 9 9 9 19 0 11 4 23 10
26 5 3 17 23 27 43 9 20 20 39 23 42 12 10 114 228 135 289 37 109 7 188 -89
235 -72 34 -185 44 -255 21z"/>
<path d="M562 2308 c-151 -17 -257 -80 -344 -205 -16 -24 -26 -43 -23 -43 3 0
-2 -11 -11 -24 -8 -14 -15 -27 -15 -30 1 -4 1 -7 0 -8 -17 -57 -21 -157 -7
-203 49 -163 239 -278 477 -288 255 -12 449 108 496 305 20 86 19 158 -5 228
-22 65 -34 84 -95 141 -100 96 -294 148 -473 127z"/>
<path d="M1889 1115 c-2 -1 -22 -5 -44 -8 -83 -12 -181 -58 -240 -114 -32 -30
-92 -103 -94 -115 -1 -4 -9 -24 -18 -45 -23 -56 -27 -81 -27 -159 0 -71 25
-146 60 -181 7 -8 17 -20 21 -26 5 -7 26 -26 48 -43 175 -136 484 -158 673
-48 50 29 132 110 132 130 0 8 5 14 10 14 6 0 10 9 10 19 0 11 4 22 9 25 14 9
39 170 31 199 -1 4 -3 15 -4 25 -4 34 -29 102 -38 102 -5 0 -7 4 -3 10 3 5
-20 35 -51 66 -61 60 -156 112 -249 133 -48 11 -219 24 -226 16z"/>
</g>
</svg>
