<?xml version="1.0" standalone="no"?>
<!DOCTYPE svg PUBLIC "-//W3C//DTD SVG 20010904//EN"
 "http://www.w3.org/TR/2001/REC-SVG-20010904/DTD/svg10.dtd">
<svg version="1.0" xmlns="http://www.w3.org/2000/svg"
 width="260.000000pt" height="260.000000pt" viewBox="0 0 260.000000 260.000000"
 preserveAspectRatio="xMidYMid meet">
<metadata>
Created by potrace 1.11, written by Peter Selinger 2001-2013
</metadata>
<g transform="translate(0.000000,260.000000) scale(0.100000,-0.100000)"
fill="#000000" stroke="none">
<path d="M1174 2562 c6 -9 -1 -12 -28 -9 -20 2 -36 0 -36 -6 0 -5 -7 -4 -15 3
-12 10 -15 10 -15 -1 0 -11 -2 -11 -10 1 -9 13 -10 13 -10 0 0 -13 -1 -13 -11
0 -8 12 -12 12 -16 2 -4 -10 -8 -10 -19 -1 -11 9 -14 9 -14 0 0 -9 -5 -9 -20
-1 -14 8 -20 8 -20 0 0 -6 -4 -9 -8 -6 -11 6 -52 -22 -52 -35 0 -6 5 -7 10 -4
15 9 12 -2 -6 -19 -8 -9 -12 -16 -7 -16 5 0 9 -18 10 -40 1 -27 -2 -38 -9 -34
-7 5 -8 2 -3 -7 5 -7 10 -54 12 -104 3 -110 4 -115 16 -115 6 0 5 -5 -1 -13
-7 -8 -6 -18 4 -31 7 -10 11 -23 8 -27 -3 -5 0 -9 5 -9 6 0 11 -5 11 -11 0 -5
-4 -7 -10 -4 -6 3 -7 -1 -4 -9 3 -9 10 -13 15 -10 5 3 6 -2 3 -10 -3 -9 2 -23
11 -32 13 -13 14 -19 4 -25 -10 -6 -9 -9 4 -15 15 -5 15 -9 5 -22 -8 -9 -8
-13 -2 -9 7 4 18 0 25 -9 10 -13 10 -17 0 -24 -10 -6 -8 -10 8 -15 17 -5 19
-10 11 -19 -7 -10 -3 -21 17 -41 16 -16 21 -25 13 -20 -12 7 -13 6 -3 -7 7 -8
10 -18 6 -21 -3 -4 -1 -7 5 -7 7 0 12 -9 12 -21 0 -11 5 -17 10 -14 6 3 10 -3
10 -14 0 -12 5 -21 11 -21 5 0 7 -4 4 -10 -3 -5 -1 -10 5 -10 6 0 8 -4 5 -10
-3 -5 1 -10 10 -10 9 0 14 -4 11 -9 -8 -12 21 -68 39 -75 8 -3 12 -12 9 -21
-5 -11 -2 -14 12 -8 11 4 15 3 10 -5 -3 -6 -1 -14 5 -17 5 -4 8 -13 5 -21 -3
-7 0 -16 6 -20 7 -4 8 -3 4 4 -4 7 -3 12 2 12 5 0 15 -13 22 -30 7 -16 19 -30
28 -30 8 0 12 -3 9 -7 -4 -3 2 -13 13 -20 11 -8 17 -19 14 -25 -4 -7 -2 -8 4
-4 7 4 12 3 12 -3 0 -5 9 -13 20 -16 11 -3 20 -10 20 -15 0 -15 44 -57 68 -65
13 -4 21 -9 18 -12 -7 -7 20 -33 34 -33 6 0 13 -7 16 -15 4 -8 10 -12 15 -9 5
3 9 1 9 -4 0 -5 14 -15 30 -22 17 -7 30 -16 30 -21 0 -5 5 -9 11 -9 6 0 17 -7
25 -15 8 -8 21 -12 30 -8 8 3 14 2 12 -3 -2 -5 1 -10 6 -11 5 -1 12 -6 16 -13
4 -6 16 -13 26 -14 10 -2 18 -8 17 -14 -1 -6 5 -9 14 -8 10 2 27 -8 40 -20 13
-13 30 -21 38 -18 9 4 15 0 15 -7 0 -12 2 -12 9 -1 7 11 9 10 15 -3 3 -9 10
-14 15 -11 5 3 12 -1 15 -10 3 -8 11 -12 17 -9 5 4 20 -1 31 -12 12 -10 18
-12 14 -5 -4 6 -2 12 3 12 6 0 11 -5 11 -12 0 -6 3 -8 7 -5 3 4 12 -1 20 -11
14 -16 14 -16 8 2 -6 19 -5 19 13 3 10 -9 22 -14 25 -10 4 3 7 0 7 -8 0 -11 2
-11 10 1 8 13 10 12 10 -3 0 -18 20 -19 32 -2 4 6 8 2 8 -9 0 -13 5 -17 20
-13 11 3 20 1 20 -5 0 -5 5 -6 10 -3 6 4 18 1 27 -7 12 -9 15 -9 9 0 -4 6 -2
12 3 12 6 0 11 -5 11 -11 0 -6 9 -8 20 -4 11 4 20 2 20 -4 0 -6 5 -11 11 -11
5 0 7 5 3 12 -4 6 3 4 16 -5 18 -12 27 -14 37 -5 8 7 13 7 13 0 0 -5 9 -8 20
-5 13 3 20 0 20 -8 1 -9 4 -8 11 4 7 11 16 15 27 9 15 -6 52 -7 100 -3 6 0 12
9 12 19 0 14 2 15 10 2 9 -13 14 -7 11 13 0 4 3 7 9 7 5 0 7 7 4 15 -4 9 0 15
7 15 11 0 11 3 -1 10 -12 8 -12 10 -1 10 11 0 11 3 0 17 -12 15 -12 16 1 8 13
-8 13 -7 1 8 -11 14 -11 17 0 17 10 0 10 3 1 12 -8 8 -8 17 -1 31 7 12 7 17 1
13 -11 -7 -11 12 1 32 5 7 3 12 -4 12 -8 0 -8 4 1 15 10 12 10 15 -1 15 -11 0
-11 2 1 10 12 8 12 10 1 10 -10 0 -11 3 -2 14 9 11 9 15 -1 19 -10 4 -10 6 1
6 11 1 11 4 0 18 -12 15 -12 16 1 8 13 -8 13 -7 1 8 -11 14 -11 17 0 17 10 0
10 3 1 12 -8 8 -8 17 -1 31 7 12 7 17 1 13 -11 -7 -11 12 1 32 5 7 3 12 -4 12
-8 0 -8 4 1 15 10 12 10 15 -1 15 -11 0 -11 2 1 10 12 8 12 10 1 10 -10 0 -11
3 -2 14 9 11 9 15 -1 19 -10 4 -10 6 1 6 11 1 11 4 0 18 -12 15 -12 16 1 8 13
-8 13 -7 1 8 -11 14 -11 17 0 17 10 0 10 3 1 12 -8 8 -8 17 -1 31 7 12 7 17 1
13 -11 -7 -11 12 1 32 5 7 3 12 -4 12 -10 0 -10 3 -1 12 9 9 8 16 -5 30 -16
18 -16 18 2 12 17 -7 18 -6 5 8 -8 9 -18 14 -22 11 -5 -2 -8 -1 -8 4 0 4 -45
8 -99 9 -55 0 -98 -3 -96 -6 2 -4 -2 -7 -10 -7 -8 0 -11 5 -8 10 4 6 0 8 -9 4
-9 -3 -21 0 -28 6 -10 9 -11 9 -6 -1 6 -9 -2 -11 -29 -6 -29 4 -35 3 -29 -8 6
-10 3 -9 -10 1 -15 13 -19 13 -27 0 -6 -10 -9 -10 -9 -1 0 6 -9 12 -21 12 -13
0 -18 -4 -13 -12 5 -8 1 -8 -10 1 -15 13 -19 13 -27 0 -6 -10 -9 -10 -9 -1 0
6 -9 12 -21 12 -11 0 -17 -4 -14 -10 3 -6 -1 -7 -9 -4 -9 3 -16 11 -16 17 0 6
-7 2 -16 -9 -8 -10 -12 -13 -9 -6 5 9 1 13 -11 11 -11 -2 -25 0 -31 4 -7 5
-13 5 -13 0 0 -12 -74 -10 -82 2 -5 6 -8 4 -8 -5 0 -13 -1 -13 -11 0 -7 10
-12 11 -15 3 -4 -8 -14 -9 -34 -3 -20 6 -30 5 -34 -3 -3 -8 -5 -8 -5 -1 -1 6
-14 9 -31 6 -19 -3 -30 0 -30 7 0 7 -4 9 -10 6 -5 -3 -10 -2 -10 4 0 5 6 12
13 14 7 3 4 6 -7 6 -14 1 -16 4 -7 14 8 10 7 17 -1 25 -8 8 -8 15 1 26 9 10 9
16 1 21 -7 4 -7 11 -2 18 14 18 23 49 13 42 -5 -3 -12 -1 -16 5 -3 5 -1 10 4
10 13 0 10 22 -4 32 -6 5 -6 8 1 8 6 0 12 11 12 25 0 16 -5 22 -12 18 -6 -4
-5 1 3 11 12 15 13 19 1 26 -11 7 -11 11 -1 23 8 11 9 17 1 22 -6 3 -7 12 -3
18 12 19 12 77 -1 77 -8 0 -7 3 1 8 12 8 12 36 0 48 -4 4 1 16 10 27 10 11 13
17 6 14 -6 -4 -14 -3 -18 3 -3 5 2 10 12 10 17 1 17 1 0 11 -14 8 -16 14 -6
25 9 11 8 18 -2 31 -12 14 -12 16 0 8 11 -6 13 -4 9 7 -4 8 -2 21 2 28 5 8 4
22 -1 32 -7 12 -6 18 1 18 7 0 8 6 0 19 -7 14 -6 21 3 24 8 4 8 6 0 6 -6 1 -9
10 -5 23 3 14 2 19 -6 14 -8 -5 -12 1 -12 14 0 12 -4 18 -10 15 -5 -3 -10 -2
-10 2 0 5 -9 9 -20 10 -13 1 -18 -2 -13 -10 5 -9 3 -9 -8 -1 -20 15 -72 17
-63 2 5 -7 3 -8 -7 -2 -21 13 -39 14 -39 1 0 -7 -5 -6 -10 3 -9 13 -11 13 -20
0 -7 -11 -10 -11 -10 -2 0 10 -5 10 -20 2 -14 -8 -20 -8 -20 0 0 8 -6 8 -20 0
-15 -8 -20 -8 -20 2 0 10 -3 9 -9 -1 -7 -11 -13 -12 -23 -4 -21 18 -24 19 -39
7 -20 -15 -51 -26 -44 -15 3 5 1 12 -4 15 -5 3 -12 -1 -15 -10 -6 -15 -9 -15
-28 2 -12 11 -18 13 -14 7 4 -7 3 -13 -1 -13 -5 0 -15 6 -22 13 -11 10 -12 9
-7 -1z"/>
<path d="M125 1719 c-4 -5 -11 -7 -16 -4 -5 4 -9 1 -9 -4 0 -6 -3 -10 -7 -10
-18 3 -36 -2 -30 -8 4 -3 -1 -12 -11 -20 -16 -12 -16 -13 3 -7 17 5 18 4 5 -8
-16 -14 -19 -55 -6 -76 4 -6 4 -12 -1 -12 -4 0 -9 -11 -9 -25 -1 -16 2 -22 10
-18 6 4 4 -4 -5 -18 -12 -18 -14 -30 -7 -43 7 -12 6 -22 -4 -33 -9 -12 -10
-15 0 -9 9 5 11 -4 9 -36 -1 -24 -6 -49 -11 -57 -6 -10 -5 -12 2 -7 7 4 12 3
12 -3 0 -5 -6 -12 -12 -14 -10 -4 -10 -6 0 -6 9 -1 10 -6 2 -20 -7 -14 -6 -21
3 -24 9 -4 9 -6 0 -6 -7 -1 -13 -6 -13 -12 0 -5 6 -7 12 -3 10 6 10 4 0 -8
-10 -13 -10 -17 0 -21 10 -4 10 -6 1 -6 -9 -1 -10 -8 -3 -26 7 -17 6 -25 -1
-25 -8 0 -8 -4 0 -13 8 -10 7 -17 -1 -25 -9 -9 -9 -12 2 -12 13 0 13 -2 0 -10
-13 -9 -13 -10 0 -10 13 0 13 -1 0 -10 -11 -7 -11 -10 -2 -10 9 0 10 -5 2 -19
-7 -14 -6 -21 3 -24 9 -4 9 -6 0 -6 -7 -1 -13 -6 -13 -12 0 -5 6 -7 13 -3 8 5
8 2 -2 -9 -10 -13 -10 -17 -1 -17 9 0 9 -4 -1 -17 -8 -9 -9 -14 -2 -10 7 4 14
-1 18 -12 5 -17 15 -19 89 -18 46 1 82 -2 79 -6 -2 -4 8 -5 23 -1 21 6 25 4
19 -7 -7 -11 -6 -12 6 -3 19 14 61 16 53 2 -5 -7 -2 -8 7 -3 19 12 49 14 49 3
0 -5 9 -4 20 2 14 8 20 8 20 0 0 -6 5 -8 12 -3 20 12 38 12 38 1 0 -6 7 -5 16
3 13 10 17 10 25 -2 7 -12 9 -12 9 1 0 13 1 13 10 0 6 -9 13 -11 18 -5 11 15
42 17 42 3 0 -9 3 -9 10 2 6 10 10 11 10 3 0 -7 5 -13 11 -13 5 0 7 6 3 13 -6
9 -4 9 8 -1 13 -10 17 -10 21 0 4 9 8 10 14 2 10 -13 53 -13 53 0 0 5 7 1 16
-10 8 -10 12 -13 8 -5 -5 10 -1 11 15 6 14 -4 21 -2 21 6 0 7 7 5 16 -7 8 -10
13 -14 10 -7 -4 8 8 10 43 8 64 -4 73 -10 61 -40 -6 -16 -5 -25 3 -29 9 -3 9
-5 0 -5 -17 -1 -17 -28 0 -34 9 -4 9 -6 0 -6 -7 -1 -10 -8 -6 -18 4 -11 3 -14
-5 -9 -9 5 -9 0 -2 -20 8 -21 8 -29 -2 -36 -7 -4 -8 -8 -3 -8 6 0 10 -27 9
-65 -1 -36 2 -63 6 -60 5 3 6 -4 3 -15 -3 -11 -10 -17 -16 -13 -6 4 -7 1 -1
-8 5 -8 10 -25 12 -37 2 -17 -1 -22 -10 -16 -10 6 -10 4 -2 -7 11 -15 12 -88
1 -106 -4 -7 -3 -14 3 -18 6 -4 7 -12 0 -24 -6 -12 -5 -22 3 -31 9 -10 9 -11
0 -6 -7 4 -13 2 -13 -3 0 -6 5 -11 10 -11 7 0 7 -6 0 -20 -8 -15 -8 -20 1 -20
8 0 8 -4 1 -13 -7 -8 -7 -18 -2 -27 5 -8 5 -21 -1 -32 -7 -12 -6 -18 1 -18 6
0 8 -5 3 -12 -12 -20 -12 -39 0 -31 6 4 8 0 5 -9 -12 -29 8 -42 75 -47 5 -1 5
-5 2 -11 -8 -13 28 0 37 14 5 7 8 7 8 -2 0 -15 31 -12 42 3 5 6 8 5 8 -4 0
-11 3 -11 17 0 15 12 16 12 8 -1 -8 -13 -7 -13 8 -1 14 11 17 11 17 0 0 -12 2
-12 9 0 6 10 10 10 16 1 6 -9 10 -9 16 1 7 12 9 12 9 0 0 -11 3 -11 15 -1 12
10 15 10 15 -1 0 -11 2 -11 10 1 5 8 10 10 10 4 0 -6 7 -11 15 -11 8 0 15 5
15 10 0 5 7 4 15 -3 12 -10 15 -10 15 0 0 9 4 9 17 -1 15 -12 16 -12 8 1 -8
13 -7 13 8 1 14 -11 17 -11 17 0 0 11 2 11 10 -1 9 -13 10 -13 10 0 0 13 1 13
10 0 8 -12 10 -12 10 -1 0 11 3 11 15 1 12 -10 15 -10 15 0 0 9 4 9 17 -1 15
-12 16 -12 8 1 -8 13 -7 13 8 1 14 -11 17 -11 17 0 0 11 2 11 10 -1 9 -13 10
-13 10 0 0 12 2 12 9 1 6 -10 10 -10 16 -1 6 9 10 9 16 -1 7 -12 9 -12 9 0 0
11 3 11 15 1 12 -10 15 -10 15 0 0 10 3 10 15 0 12 -10 15 -10 15 0 0 9 4 9
17 -1 14 -12 16 -12 8 0 -6 11 -4 13 8 8 9 -3 19 -2 22 4 4 5 11 6 17 3 6 -4
8 -2 5 3 -4 6 0 14 8 17 12 4 13 11 7 23 -11 21 -5 46 9 38 5 -4 6 1 3 9 -3 9
-11 13 -18 9 -6 -4 -5 1 3 11 12 14 12 19 2 26 -9 5 -10 10 -2 14 6 4 9 20 7
36 -2 18 1 30 8 30 6 0 4 5 -4 10 -8 5 -10 10 -5 10 6 0 10 11 10 24 0 13 -3
22 -6 20 -4 -2 -10 3 -13 12 -3 8 -2 12 4 9 6 -3 10 1 10 9 0 8 -4 17 -10 21
-5 3 -6 13 -3 22 5 12 3 14 -7 8 -9 -5 -11 -4 -6 4 4 6 3 18 -4 26 -8 9 -8 15
0 20 8 5 8 11 -1 21 -6 8 -9 23 -6 34 3 11 1 18 -3 15 -5 -3 -11 -1 -15 5 -3
5 0 10 7 10 10 0 10 2 -1 9 -7 5 -11 13 -7 19 3 6 1 14 -5 18 -8 5 -9 3 -4 -6
5 -9 4 -11 -4 -6 -9 6 -9 11 0 22 8 10 8 14 0 14 -6 0 -11 9 -11 20 0 11 -5
20 -12 20 -6 0 -8 3 -5 7 4 3 -1 15 -10 26 -10 11 -13 18 -7 14 6 -3 11 0 11
8 0 8 -3 12 -7 10 -3 -2 -12 12 -19 31 -7 18 -18 34 -24 34 -7 0 -6 4 3 10 13
8 12 10 -2 10 -10 0 -18 5 -18 11 0 5 6 7 13 3 6 -4 4 2 -5 13 -10 11 -18 25
-18 31 0 6 -8 16 -17 21 -10 6 -14 11 -9 11 5 0 2 8 -5 17 -12 14 -12 16 0 8
10 -5 12 -4 7 3 -4 7 -14 12 -23 12 -13 0 -14 2 -2 17 10 11 10 14 2 9 -12 -7
-18 6 -13 29 1 6 -1 7 -5 3 -4 -4 -13 -1 -20 5 -10 9 -10 15 -1 26 6 8 7 12 1
9 -5 -3 -21 6 -35 20 -14 13 -19 22 -12 18 6 -4 12 -2 12 3 0 6 -7 11 -16 11
-9 0 -18 9 -21 20 -3 11 -10 20 -15 20 -5 0 -6 5 -3 10 3 6 0 10 -8 10 -7 0
-20 11 -27 25 -7 13 -22 27 -33 31 -16 5 -17 8 -6 15 11 7 11 9 -2 9 -9 0 -20
7 -23 16 -3 8 -10 12 -16 9 -5 -3 -10 1 -10 10 0 9 -5 13 -10 10 -5 -3 -10 1
-10 10 0 9 -4 13 -10 10 -6 -3 -10 4 -10 17 0 14 -3 19 -8 11 -8 -13 -34 -2
-33 13 1 5 -5 9 -11 9 -7 0 -13 7 -13 15 0 9 -8 14 -18 12 -9 -2 -17 2 -17 8
0 6 -5 8 -12 4 -6 -4 -8 -3 -5 3 9 14 -24 41 -46 38 -9 -2 -23 5 -30 16 -8 10
-17 16 -20 12 -4 -3 -7 -1 -7 5 0 7 -7 12 -16 12 -8 0 -12 5 -9 10 3 6 -3 10
-14 10 -12 0 -21 5 -21 11 0 5 -5 7 -10 4 -5 -3 -10 -1 -10 5 0 6 -4 8 -10 5
-5 -3 -10 -1 -10 4 0 6 -9 11 -20 11 -11 0 -20 3 -20 8 0 4 -9 13 -21 20 -12
8 -18 9 -15 4 3 -6 -5 -5 -19 1 -14 7 -25 16 -25 20 0 5 -4 6 -9 2 -5 -3 -16
2 -24 10 -12 11 -17 12 -20 2 -3 -7 -6 -5 -6 6 -1 9 -4 16 -8 16 -20 -4 -73
15 -73 25 0 6 -5 4 -10 -4 -6 -10 -10 -11 -10 -2 0 6 -8 12 -18 12 -10 0 -24
6 -31 13 -11 10 -12 9 -6 -3 7 -11 4 -11 -11 2 -14 12 -24 14 -36 7 -14 -8
-16 -7 -11 7 4 11 3 15 -4 11 -6 -4 -14 -1 -16 5 -3 7 -6 8 -6 2 -1 -14 -61
-5 -61 10 0 6 -5 4 -10 -4 -5 -8 -10 -10 -10 -4 0 7 -16 11 -40 10 -22 0 -40
3 -40 7 0 5 -4 5 -10 2 -5 -3 -10 -1 -10 6 0 8 -4 8 -15 -1 -12 -10 -15 -10
-15 1 0 11 -2 11 -10 -1 -8 -13 -10 -13 -10 0 0 10 -3 11 -11 3 -8 -8 -20 -8
-35 -3 -14 6 -26 5 -29 -1z"/>
</g>
</svg>
