<?xml version="1.0" standalone="no"?>
<!DOCTYPE svg PUBLIC "-//W3C//DTD SVG 20010904//EN"
 "http://www.w3.org/TR/2001/REC-SVG-20010904/DTD/svg10.dtd">
<svg version="1.0" xmlns="http://www.w3.org/2000/svg"
 width="260.000000pt" height="260.000000pt" viewBox="0 0 260.000000 260.000000"
 preserveAspectRatio="xMidYMid meet">
<metadata>
Created by potrace 1.11, written by Peter Selinger 2001-2013
</metadata>
<g transform="translate(0.000000,260.000000) scale(0.100000,-0.100000)"
fill="#000000" stroke="none">
<path d="M241 2589 c-18 -6 -38 -14 -45 -20 -6 -5 -31 -24 -56 -43 -25 -18
-59 -53 -75 -77 -17 -24 -33 -46 -36 -49 -26 -20 -29 -125 -29 -1100 0 -975 3
-1080 29 -1100 3 -3 19 -25 36 -49 16 -24 50 -59 75 -77 25 -19 50 -38 56 -43
35 -29 111 -31 1104 -31 993 0 1069 2 1104 31 6 5 31 24 56 43 25 18 59 53 75
77 17 24 33 46 36 49 26 20 29 125 29 1100 0 993 -2 1069 -31 1104 -5 6 -24
31 -43 56 -18 25 -53 59 -77 75 -24 17 -46 33 -49 36 -20 26 -124 29 -1105 28
-622 0 -1033 -5 -1054 -10z m1319 -461 c175 -47 266 -153 289 -336 12 -91 2
-193 -23 -253 -22 -52 -72 -116 -111 -141 -37 -25 -44 -38 -20 -38 8 0 45 -12
81 -26 124 -50 192 -147 215 -308 28 -203 -64 -391 -235 -475 -123 -60 -151
-63 -608 -68 l-418 -5 0 837 0 837 388 -5 c295 -3 400 -8 442 -19z"/>
<path d="M1160 1654 l0 -166 95 4 c75 3 100 8 122 24 49 36 73 82 73 138 0
115 -64 166 -207 166 l-83 0 0 -166z"/>
<path d="M1160 986 l0 -176 113 0 c136 0 203 17 255 65 36 33 37 35 37 108 0
87 -16 117 -81 151 -33 18 -61 22 -181 24 l-143 4 0 -176z"/>
</g>
</svg>
