<?xml version="1.0" standalone="no"?>
<!DOCTYPE svg PUBLIC "-//W3C//DTD SVG 20010904//EN"
 "http://www.w3.org/TR/2001/REC-SVG-20010904/DTD/svg10.dtd">
<svg version="1.0" xmlns="http://www.w3.org/2000/svg"
 width="400.000000pt" height="400.000000pt" viewBox="0 0 400.000000 400.000000"
 preserveAspectRatio="xMidYMid meet">
<metadata>
Created by potrace 1.11, written by Peter Selinger 2001-2013
</metadata>
<g transform="translate(0.000000,400.000000) scale(0.100000,-0.100000)"
fill="#000000" stroke="none">
<path d="M2196 3899 c-78 -62 -147 -326 -150 -574 -1 -147 11 -182 72 -218
120 -70 219 148 251 555 12 161 -1 213 -65 243 -44 21 -76 19 -108 -6z"/>
<path d="M966 3831 c-17 -26 -36 -135 -36 -201 0 -129 43 -244 139 -370 63
-84 161 -177 195 -186 39 -9 75 3 88 32 36 78 -79 396 -214 591 -77 111 -151
169 -172 134z"/>
<path d="M3321 3215 c-18 -8 -98 -58 -177 -110 -154 -102 -274 -206 -294 -256
-11 -27 -11 -34 7 -57 31 -43 80 -64 133 -57 101 14 249 107 397 250 79 76 93
95 93 122 0 39 -41 90 -87 109 -38 16 -30 17 -72 -1z"/>
<path d="M200 3105 c0 -144 418 -457 632 -473 51 -4 59 -2 82 21 83 83 -29
212 -299 347 -156 78 -304 130 -371 130 -40 0 -44 -2 -44 -25z"/>
<path d="M1635 3051 c-82 -21 -227 -120 -383 -260 -249 -223 -365 -492 -365
-846 0 -171 23 -278 88 -410 53 -110 131 -206 231 -285 216 -172 477 -217 832
-144 318 65 662 266 808 469 103 145 134 260 134 496 0 303 -40 429 -181 567
-100 99 -228 159 -389 183 -206 30 -427 -58 -632 -250 -187 -175 -270 -350
-247 -519 5 -32 28 -105 52 -163 75 -180 130 -250 211 -274 63 -19 272 -20
341 -1 147 39 245 135 301 293 42 120 27 231 -43 312 -54 64 -102 84 -208 89
-80 3 -95 1 -135 -20 -50 -27 -90 -78 -90 -115 0 -14 14 -58 30 -100 30 -74
38 -123 21 -123 -5 0 -31 15 -57 33 -97 66 -140 206 -95 301 60 123 293 248
464 249 90 0 161 -22 228 -73 114 -85 135 -141 117 -305 -37 -337 -300 -642
-635 -737 -94 -27 -278 -31 -358 -9 -145 40 -272 146 -339 283 -46 93 -60 168
-53 288 8 149 56 286 147 420 47 69 177 195 252 244 85 57 132 134 144 239 8
68 -8 120 -46 147 -32 23 -100 33 -145 21z"/>
<path d="M3750 2303 c-270 -28 -511 -92 -577 -155 -52 -49 -3 -122 106 -162
45 -16 60 -17 143 -6 183 23 393 71 496 112 58 23 82 55 82 108 0 38 -24 86
-49 100 -19 9 -123 11 -201 3z"/>
<path d="M170 2229 c-112 -29 -170 -75 -170 -135 0 -32 57 -72 141 -100 80
-26 94 -28 274 -28 169 -1 198 1 260 21 160 50 181 153 45 212 -125 54 -402
69 -550 30z"/>
<path d="M3064 1610 c-62 -25 -86 -125 -41 -173 62 -69 603 -367 663 -367 56
0 105 113 74 171 -13 23 -331 251 -421 302 -116 64 -220 90 -275 67z"/>
<path d="M779 1430 c-167 -41 -439 -248 -439 -335 0 -57 76 -77 177 -47 178
55 383 229 383 324 0 48 -55 74 -121 58z"/>
<path d="M2549 1091 c-34 -34 -39 -45 -39 -84 0 -129 151 -413 303 -570 77
-80 104 -97 150 -97 32 0 46 7 78 39 28 27 39 47 39 68 0 34 -152 374 -213
477 -50 85 -126 168 -171 190 -60 28 -103 21 -147 -23z"/>
<path d="M1348 977 c-128 -97 -279 -393 -295 -577 -5 -57 -2 -69 17 -92 39
-50 92 -34 177 54 163 168 293 501 238 607 -26 52 -75 55 -137 8z"/>
<path d="M2006 889 c-26 -20 -46 -72 -68 -174 -20 -95 -17 -415 5 -494 31
-113 81 -155 135 -114 38 28 59 68 83 159 26 99 32 356 10 444 -37 149 -107
225 -165 179z"/>
</g>
</svg>
